<?xml version="1.0" encoding="utf-8"?>
<!-- Generator: Adobe Illustrator 23.0.4, SVG Export Plug-In . SVG Version: 6.00 Build 0)  -->
<svg version="1.1" id="Layer_1" xmlns="http://www.w3.org/2000/svg" xmlns:xlink="http://www.w3.org/1999/xlink" x="0px" y="0px"
	 viewBox="0 0 170 50" style="enable-background:new 0 0 170 50;" xml:space="preserve">
<style type="text/css">
	.st0{fill:#1D1D1B;}
	.st1{fill:#E75524;}
</style>
<g>
	<path class="st0" d="M78.94,36l-3.93-5.07h-1.19v7.34h1.27v-5.22l4.05,5.22h1.08v-7.34h-1.27V36z M64.84,36.37l-1.75-5.44H61.7
		l2.56,7.39h1.11l1.8-5.27l1.8,5.27h1.11l2.56-7.39h-1.35l-1.75,5.44l-1.8-5.46h-1.09L64.84,36.37z M59.89,34.61
		c0,1.44-1.02,2.6-2.47,2.6c-1.46,0-2.5-1.18-2.5-2.62c0-1.44,1.02-2.6,2.47-2.6C58.85,31.99,59.89,33.17,59.89,34.61 M61.24,34.59
		c0-2.08-1.57-3.78-3.83-3.78c-2.25,0-3.85,1.73-3.85,3.8s1.57,3.78,3.83,3.78C59.65,38.39,61.24,36.66,61.24,34.59 M51.13,34.61
		c0,1.45-1.01,2.48-2.55,2.48h-1.45V32.1h1.45C50.12,32.1,51.13,33.16,51.13,34.61 M52.48,34.59c0-2.08-1.59-3.66-3.9-3.66h-2.74
		v7.34h2.74C50.88,38.27,52.48,36.66,52.48,34.59 M41.81,32.13h2.33v-1.2h-5.95v1.2h2.33v6.14h1.3V32.13z M35.7,36l-3.93-5.07h-1.19
		v7.34h1.27v-5.22l4.05,5.22h1.08v-7.34H35.7V36z M28.95,30.93h-1.29v4.22c0,1.35-0.7,2.04-1.84,2.04c-1.15,0-1.86-0.73-1.86-2.1
		v-4.17h-1.29v4.22c0,2.13,1.22,3.23,3.12,3.23c1.92,0,3.16-1.1,3.16-3.29V30.93z M20.01,34.61c0,1.44-1.02,2.6-2.47,2.6
		c-1.46,0-2.49-1.18-2.49-2.62c0-1.44,1.02-2.6,2.47-2.6C18.98,31.99,20.01,33.17,20.01,34.61 M21.37,34.59
		c0-2.08-1.57-3.78-3.83-3.78c-2.25,0-3.85,1.73-3.85,3.8s1.57,3.78,3.83,3.78C19.77,38.39,21.37,36.66,21.37,34.59 M13.02,37.09
		l-0.83-0.84c-0.63,0.59-1.21,0.95-2.11,0.95c-1.4,0-2.42-1.17-2.42-2.62c0-1.45,1.02-2.6,2.42-2.6c0.84,0,1.47,0.37,2.05,0.91
		l0.83-0.95c-0.7-0.67-1.52-1.14-2.87-1.14c-2.22,0-3.78,1.71-3.78,3.8c0,2.12,1.59,3.78,3.73,3.78
		C11.42,38.39,12.26,37.89,13.02,37.09"/>
	<path class="st1" d="M80.51,21.22h-5.44v7.34h5.49v-1.15h-4.2v-1.97h3.68v-1.15h-3.68v-1.91h4.15V21.22z M70.91,23.62
		c0,0.75-0.59,1.24-1.51,1.24h-1.89V22.4h1.88C70.35,22.4,70.91,22.82,70.91,23.62 M72.45,28.56l-1.98-2.78
		c1.03-0.28,1.75-1.02,1.75-2.23c0-1.44-1.04-2.33-2.73-2.33h-3.27v7.34h1.29V26h1.61l1.8,2.56H72.45z M62.05,24.9
		c0,1.44-1.02,2.6-2.47,2.6c-1.46,0-2.49-1.18-2.49-2.62c0-1.44,1.02-2.6,2.47-2.6C61.01,22.28,62.05,23.47,62.05,24.9 M63.4,24.88
		c0-2.08-1.57-3.78-3.83-3.78c-2.25,0-3.85,1.73-3.85,3.8c0,2.08,1.57,3.78,3.83,3.78C61.81,28.69,63.4,26.96,63.4,24.88
		 M52.15,23.72c0,0.79-0.61,1.32-1.58,1.32h-1.5V22.4h1.5C51.54,22.4,52.15,22.85,52.15,23.72 M53.46,23.69
		c0-1.5-1.08-2.46-2.79-2.46h-2.89v7.34h1.29V26.2h1.46C52.14,26.2,53.46,25.34,53.46,23.69 M42.68,25.65h-2.53l1.26-2.93
		L42.68,25.65z M42.03,21.17h-1.19l-3.23,7.39h1.32l0.75-1.77h3.47l0.74,1.77h1.36L42.03,21.17z M35.29,27.55v-3.08h-3.12v1.12h1.88
		v1.37c-0.45,0.34-1.08,0.56-1.77,0.56c-1.5,0-2.49-1.11-2.49-2.63c0-1.43,1.03-2.6,2.38-2.6c0.93,0,1.49,0.3,2.05,0.79l0.82-0.97
		c-0.75-0.64-1.54-1-2.82-1c-2.21,0-3.78,1.74-3.78,3.8c0,2.15,1.51,3.78,3.8,3.78C33.53,28.69,34.57,28.16,35.29,27.55 M24.33,26.3
		l-3.93-5.07h-1.2v7.34h1.27v-5.22l4.05,5.22h1.08v-7.34h-1.27V26.3z M14.69,28.56h1.29v-7.34h-1.29V28.56z M7.73,23.14
		c0-0.49,0.44-0.88,1.2-0.88c0.67,0,1.33,0.26,1.99,0.75l0.69-0.97c-0.74-0.6-1.59-0.92-2.66-0.92c-1.46,0-2.51,0.86-2.51,2.14
		c0,1.36,0.88,1.82,2.44,2.2c1.36,0.31,1.66,0.6,1.66,1.13c0,0.57-0.5,0.93-1.3,0.93c-0.91,0-1.61-0.35-2.32-0.95l-0.78,0.92
		c0.88,0.79,1.94,1.17,3.06,1.17c1.54,0,2.62-0.82,2.62-2.2c0-1.23-0.81-1.78-2.36-2.16C8.06,23.97,7.73,23.72,7.73,23.14"/>
	<path class="st0" d="M78.05,15.93l2.91-4.41h-1.48l-2.08,3.25l-2.05-3.25h-1.52l2.91,4.44v2.89h1.3V15.93z M70.12,15.94H67.6
		l1.26-2.94L70.12,15.94z M69.47,11.47h-1.19l-3.23,7.39h1.32l0.75-1.77h3.47l0.74,1.77h1.36L69.47,11.47z M60.89,17.71h-2.14V15.7
		h2.04c1.02,0,1.51,0.37,1.51,1C62.3,17.37,61.77,17.71,60.89,17.71 M60.51,14.61h-1.76v-1.95h1.86c0.83,0,1.29,0.35,1.29,0.94
		C61.89,14.29,61.34,14.61,60.51,14.61 M60.77,11.52h-3.29v7.34h3.4c1.64,0,2.71-0.7,2.71-2.02c0-1.01-0.6-1.5-1.46-1.79
		c0.54-0.28,1.05-0.74,1.05-1.65C63.18,12.24,62.25,11.52,60.77,11.52 M50.8,15.94h-2.53l1.26-2.94L50.8,15.94z M50.15,11.47h-1.19
		l-3.23,7.39h1.32l0.75-1.77h3.47l0.74,1.77h1.36L50.15,11.47z M42.57,16.59l-3.93-5.07h-1.2v7.34h1.27v-5.22l4.05,5.22h1.08v-7.34
		h-1.27V16.59z M33.56,18.86h1.29v-7.34h-1.29V18.86z M29.96,13.92c0,0.75-0.59,1.24-1.51,1.24h-1.89v-2.46h1.88
		C29.4,12.69,29.96,13.11,29.96,13.92 M31.51,18.86l-1.98-2.78c1.03-0.28,1.75-1.02,1.75-2.23c0-1.44-1.04-2.33-2.73-2.33h-3.27
		v7.34h1.29V16.3h1.61l1.8,2.56H31.51z M20.81,15.94h-2.53l1.26-2.94L20.81,15.94z M20.16,11.47h-1.19l-3.23,7.39h1.32l0.76-1.77
		h3.47l0.74,1.77h1.36L20.16,11.47z M12.56,13.59v5.26h1.29v-7.34h-1.37l-2.23,3.47l-2.23-3.47H6.64v7.34h1.27v-5.24l2.3,3.44h0.04
		L12.56,13.59z"/>
	<path class="st0" d="M117.85,30.64c0,2.27-1.32,3.63-3.25,3.63c-1.93,0-3.29-1.36-3.29-3.63V19.4c0-2.27,1.36-3.67,3.29-3.67
		c1.93,0,3.25,1.4,3.25,3.67V30.64z M122.77,30.68V19.32c0-5.15-3.78-8.02-8.17-8.02c-4.39,0-8.21,2.88-8.21,8.02v11.35
		c0,5.15,3.82,8.02,8.21,8.02C118.98,38.7,122.77,35.82,122.77,30.68 M102.37,38.47v-4.43H91.96l7.53-8.74
		c1.85-2.16,2.88-3.56,2.88-6.17c0-4.84-3.41-7.83-8.17-7.83c-4.62,0-8.21,2.95-8.21,7.87h4.92c0-2.61,1.66-3.44,3.29-3.44
		c2.08,0,3.25,1.36,3.25,3.37c0,1.25-0.42,2.08-1.4,3.25L85.98,34.04v4.43H102.37z"/>
	<path class="st1" d="M158.94,30.64c0,2.27-1.32,3.63-3.25,3.63c-1.93,0-3.29-1.36-3.29-3.63V19.4c0-2.27,1.36-3.67,3.29-3.67
		c1.93,0,3.25,1.4,3.25,3.67V30.64z M163.86,30.68V19.32c0-5.15-3.78-8.02-8.17-8.02c-4.39,0-8.21,2.88-8.21,8.02v11.35
		c0,5.15,3.82,8.02,8.21,8.02C160.07,38.7,163.86,35.82,163.86,30.68 M143.46,38.47v-4.43h-10.41l7.53-8.74
		c1.85-2.16,2.88-3.56,2.88-6.17c0-4.84-3.41-7.83-8.17-7.83c-4.62,0-8.21,2.95-8.21,7.87h4.92c0-2.61,1.66-3.44,3.29-3.44
		c2.08,0,3.25,1.36,3.25,3.37c0,1.25-0.42,2.08-1.4,3.25l-10.07,11.69v4.43H143.46z"/>
</g>
</svg>
